<svg width="80" height="80" viewBox="0 0 80 80" fill="none" xmlns="http://www.w3.org/2000/svg">
<rect width="80" height="80" rx="40" fill="#4FBF67" fill-opacity="0.1"/>
<path fill-rule="evenodd" clip-rule="evenodd" d="M40.7001 25.9497C48.7461 26.3362 54.9553 33.172 54.5689 41.218C53.4782 52.8474 41.8494 55.2869 36.1713 55.0531C33.4556 55.0254 29.8875 54.9494 27.5193 54.8105C26.7777 54.767 26.4093 53.9299 26.8562 53.3364L28.2075 51.5418C28.7609 50.807 28.7043 49.7907 28.1661 49.0447C26.3014 46.4601 25.267 43.2493 25.4318 39.8185C25.8182 31.7725 32.6541 25.5633 40.7001 25.9497ZM32.4233 37.8291C32.4233 37.033 33.0687 36.3875 33.8649 36.3875H45.4068C46.203 36.3875 46.8484 37.033 46.8484 37.8291C46.8484 38.6253 46.203 39.2707 45.4068 39.2707H33.8649C33.0687 39.2707 32.4233 38.6253 32.4233 37.8291ZM32.424 43.5065C32.4207 42.7103 33.0634 42.0622 33.8596 42.0589L41.9305 42.0254C42.7267 42.0221 43.3748 42.6648 43.3781 43.461C43.3814 44.2571 42.7386 44.9052 41.9425 44.9085L33.8716 44.9421C33.0754 44.9454 32.4273 44.3026 32.424 43.5065Z" fill="#4FBF67"/>
</svg>
