<svg width="80" height="80" viewBox="0 0 80 80" fill="none" xmlns="http://www.w3.org/2000/svg">
<rect width="80" height="80" rx="40" fill="#FFCF19" fill-opacity="0.1"/>
<path fill-rule="evenodd" clip-rule="evenodd" d="M27.7369 35.7921C27.0877 38.5598 27.0877 41.4402 27.7369 44.2079C28.6744 48.2047 31.7953 51.3255 35.7921 52.2631C38.5598 52.9123 41.4402 52.9123 44.2079 52.2631C48.2048 51.3255 51.3256 48.2047 52.2631 44.2079C52.9123 41.4402 52.9123 38.5598 52.2631 35.7921C51.3256 31.7953 48.2048 28.6744 44.2079 27.7369C41.4402 27.0877 38.5598 27.0877 35.7921 27.7369C31.7953 28.6744 28.6744 31.7953 27.7369 35.7921ZM41.0849 44.5432C41.0849 45.105 40.6295 45.5603 40.0678 45.5603C39.506 45.5603 39.0506 45.105 39.0506 44.5432C39.0506 43.9815 39.506 43.5261 40.0678 43.5261C40.6295 43.5261 41.0849 43.9815 41.0849 44.5432ZM38.1013 37.1522C38.1013 36.1036 38.9514 35.2535 40 35.2535C41.0485 35.2535 41.8986 36.1036 41.8986 37.1522V37.3167C41.8986 37.8639 41.6812 38.3886 41.2943 38.7755L39.4246 40.6453C39.1068 40.963 39.1068 41.4782 39.4246 41.796C39.7424 42.1138 40.2576 42.1138 40.5753 41.796L42.445 39.9263C43.1371 39.2342 43.526 38.2955 43.526 37.3167V37.1522C43.526 35.2048 41.9473 33.6261 40 33.6261C38.0526 33.6261 36.474 35.2048 36.474 37.1522V37.8302C36.474 38.2796 36.8383 38.6439 37.2877 38.6439C37.737 38.6439 38.1013 38.2796 38.1013 37.8302V37.1522Z" fill="#FFCF19"/>
</svg>
