<svg width="80" height="80" viewBox="0 0 80 80" fill="none" xmlns="http://www.w3.org/2000/svg">
<rect width="80" height="80" rx="40" fill="#FF6628" fill-opacity="0.1"/>
<path opacity="0.4" d="M43.426 30.7778C42.7516 30.6532 42.1322 31.0836 42.0038 31.7419C41.8754 32.4002 42.3071 33.0429 42.9632 33.1717C44.9384 33.5568 46.4635 35.0858 46.8501 37.0677V37.0692C46.9602 37.6397 47.4624 38.0545 48.0409 38.0545C48.1185 38.0545 48.1961 38.0474 48.2751 38.0332C48.9311 37.9016 49.3629 37.2603 49.2345 36.6006C48.6574 33.6403 46.3789 31.354 43.426 30.7778Z" fill="#FF6628"/>
<path opacity="0.4" d="M43.3377 25.8447C43.0217 25.7994 42.7043 25.8929 42.4517 26.0939C42.1921 26.2978 42.0299 26.5922 41.9946 26.9221C41.9198 27.5889 42.4009 28.192 43.0669 28.267C47.6592 28.7795 51.2287 32.3569 51.7451 36.9636C51.8142 37.5808 52.332 38.0466 52.9499 38.0466C52.9965 38.0466 53.0416 38.0438 53.0882 38.0381C53.4113 38.0027 53.6991 37.8427 53.9023 37.5879C54.104 37.3331 54.1957 37.016 54.159 36.6918C53.5157 30.9441 49.0672 26.4832 43.3377 25.8447Z" fill="#FF6628"/>
<path d="M47.9402 43.7869C47.0218 43.5915 46.2952 44.0162 45.6518 44.3872C44.993 44.7694 43.7387 45.7816 43.022 45.5211C39.3453 44.0148 35.8873 40.8083 34.3903 37.1331C34.1265 36.4012 35.1381 35.1455 35.5176 34.483C35.8887 33.8402 36.3063 33.1083 36.1158 32.1881C35.9437 31.3599 33.7174 28.5385 32.9301 27.7669C32.4095 27.2573 31.879 26.9769 31.333 26.9302C29.2802 26.8439 26.9876 29.5719 26.5855 30.2245C25.5767 31.6162 25.5837 33.4679 26.6024 35.7132C29.0573 41.7441 38.3422 50.8456 44.4201 53.3825C45.5404 53.9049 46.5675 54.1668 47.4888 54.1668C48.3903 54.1668 49.1931 53.9162 49.883 53.4193C50.4022 53.1206 53.255 50.7238 53.1788 48.6243C53.135 48.0892 52.8543 47.5541 52.3492 47.0359C51.5789 46.2445 48.7656 43.961 47.9402 43.7869Z" fill="#FF6628"/>
</svg>
