<svg width="80" height="80" viewBox="0 0 80 80" fill="none" xmlns="http://www.w3.org/2000/svg">
<rect width="80" height="80" rx="40" fill="#9B51E0" fill-opacity="0.1"/>
<path fill-rule="evenodd" clip-rule="evenodd" d="M26.2966 30.987C25.8334 31.8962 25.8334 33.0863 25.8334 35.4665V44.5332C25.8334 46.9134 25.8334 48.1035 26.2966 49.0126C26.7041 49.8123 27.3542 50.4625 28.1539 50.8699C29.063 51.3332 30.2532 51.3332 32.6334 51.3332H47.3667C49.7469 51.3332 50.937 51.3332 51.8462 50.8699C52.6459 50.4625 53.296 49.8123 53.7035 49.0126C54.1667 48.1035 54.1667 46.9134 54.1667 44.5332V35.4665C54.1667 33.0863 54.1667 31.8962 53.7035 30.987C53.296 30.1874 52.6459 29.5372 51.8462 29.1297C50.937 28.6665 49.7469 28.6665 47.3667 28.6665H32.6334C30.2532 28.6665 29.063 28.6665 28.1539 29.1297C27.3542 29.5372 26.7041 30.1874 26.2966 30.987ZM33.7181 34.5816C33.0729 34.139 32.1911 34.3033 31.7485 34.9484C31.3059 35.5936 31.4701 36.4755 32.1153 36.918L37.5959 40.6777C39.0446 41.6715 40.9555 41.6715 42.4042 40.6777L47.8848 36.918C48.53 36.4755 48.6942 35.5936 48.2516 34.9484C47.809 34.3033 46.9272 34.139 46.282 34.5816L40.8014 38.3413C40.3185 38.6726 39.6816 38.6726 39.1986 38.3413L33.7181 34.5816Z" fill="#9B51E0"/>
</svg>
