<svg width="256px" height="256px" viewBox="0 0 24 24" xmlns="http://www.w3.org/2000/svg">
  <!-- Use a path with the "evenodd" fill-rule to create a cutout effect -->
  <path fill-rule="evenodd" clip-rule="evenodd" d="M12 2C6.47715 2 2 6.47715 2 12C2 17.5228 6.47715 22 12 22C17.5228 22 22 17.5228 22 12C22 6.47715 17.5228 2 12 2ZM10.28 8.03994C11.44 7.61994 16 10.3299 16 12.0399C16 13.7499 11.37 16.4799 10.28 16.0399C9.19003 15.5999 9 13.5599 9 12.0399C9 10.5199 9.19003 8.42994 10.28 8.03994Z" fill="#000000"/>
  
  <!-- Add the outline for the triangle -->
  <path d="M10.28 8.03994C9.19003 8.42994 9 10.5199 9 12.0399C9 13.5599 9.19003 15.5999 10.28 16.0399C11.37 16.4799 16 13.7499 16 12.0399C16 10.3299 11.44 7.61994 10.28 8.03994Z" fill="none" stroke="#000000" stroke-width="1.824" stroke-linecap="round" stroke-linejoin="round"/>
</svg>