<svg width="21" height="19" viewBox="0 0 21 19" fill="none" xmlns="http://www.w3.org/2000/svg">
<path fill-rule="evenodd" clip-rule="evenodd" d="M7.83721 3.80141C7.83721 5.66808 6.29833 7.18106 4.39834 7.18106C2.49946 7.18106 0.959473 5.66808 0.959473 3.80141C0.959473 1.93584 2.49946 0.422852 4.39834 0.422852C6.29833 0.422852 7.83721 1.93584 7.83721 3.80141ZM19.4528 2.32118C20.2839 2.32118 20.9595 2.98488 20.9595 3.80141C20.9595 4.61903 20.2839 5.28274 19.4528 5.28274H12.8773C12.0451 5.28274 11.3695 4.61903 11.3695 3.80141C11.3695 2.98488 12.0451 2.32118 12.8773 2.32118H19.4528ZM2.46724 13.3808H9.04276C9.87498 13.3808 10.5505 14.0445 10.5505 14.8621C10.5505 15.6787 9.87498 16.3435 9.04276 16.3435H2.46724C1.63502 16.3435 0.959473 15.6787 0.959473 14.8621C0.959473 14.0445 1.63502 13.3808 2.46724 13.3808ZM17.5206 18.2006C19.4206 18.2006 20.9595 16.6876 20.9595 14.8221C20.9595 12.9554 19.4206 11.4424 17.5206 11.4424C15.6217 11.4424 14.0817 12.9554 14.0817 14.8221C14.0817 16.6876 15.6217 18.2006 17.5206 18.2006Z" fill="#28303F"/>
</svg>
