<svg width="18" height="21" viewBox="0 0 18 21" fill="none" xmlns="http://www.w3.org/2000/svg">
<path fill-rule="evenodd" clip-rule="evenodd" d="M2.77014 16.4051H14.5045C16.3614 16.4051 17.4214 14.5373 16.3072 13.2284C15.814 12.649 15.5101 11.9618 15.4283 11.2411L15.2616 9.77304C15.0875 9.79318 14.9103 9.80354 14.7308 9.80354C12.2068 9.80354 10.1607 7.75743 10.1607 5.23342C10.1607 4.24742 10.4729 3.33435 11.0039 2.5877C10.9835 2.58051 10.9631 2.57342 10.9427 2.56641V2.46108C10.9427 1.18789 9.91054 0.155762 8.63735 0.155762C7.36416 0.155762 6.33203 1.18789 6.33203 2.46108V2.56641C4.15625 3.31137 2.54548 5.08197 2.30059 7.23963L1.84643 11.2411C1.76464 11.9618 1.46068 12.649 0.967458 13.2284C-0.146663 14.5373 0.913275 16.4051 2.77014 16.4051ZM17.7776 5.23348C17.7776 6.91615 16.4135 8.28023 14.7309 8.28023C13.0482 8.28023 11.6841 6.91615 11.6841 5.23348C11.6841 3.55081 13.0482 2.18674 14.7309 2.18674C16.4135 2.18674 17.7776 3.55081 17.7776 5.23348ZM8.63736 20.4675C10.015 20.4675 11.1913 19.6542 11.6558 18.509C11.6751 18.4612 11.6841 18.4099 11.6841 18.3584C11.6841 18.1208 11.4915 17.9283 11.254 17.9283H6.0207C5.78317 17.9283 5.59061 18.1208 5.59061 18.3584C5.59061 18.4099 5.59958 18.4612 5.61895 18.509C6.08346 19.6542 7.2597 20.4675 8.63736 20.4675Z" fill="#28303F"/>
</svg>
