<svg width="353" height="38" viewBox="0 0 353 38" fill="none" xmlns="http://www.w3.org/2000/svg">
<rect width="352.14" height="38" rx="18" fill="white"/>
<path opacity="0.5" d="M47.1883 24.126C46.4137 24.126 45.7137 24.028 45.0883 23.832C44.463 23.6267 43.9217 23.3327 43.4643 22.95L43.8703 22.026C44.3463 22.39 44.8457 22.6607 45.3683 22.838C45.891 23.0153 46.4977 23.104 47.1883 23.104C48.0283 23.104 48.649 22.95 49.0503 22.642C49.461 22.3247 49.6663 21.9093 49.6663 21.396C49.6663 20.9853 49.517 20.6587 49.2183 20.416C48.929 20.1733 48.439 19.982 47.7483 19.842L46.2923 19.548C45.415 19.3613 44.757 19.058 44.3183 18.638C43.889 18.2087 43.6743 17.6393 43.6743 16.93C43.6743 16.342 43.8237 15.8287 44.1223 15.39C44.4303 14.9513 44.855 14.6107 45.3963 14.368C45.9377 14.1253 46.563 14.004 47.2723 14.004C47.935 14.004 48.551 14.1113 49.1203 14.326C49.6897 14.5313 50.1703 14.83 50.5623 15.222L50.1563 16.118C49.7363 15.7353 49.293 15.46 48.8263 15.292C48.3597 15.1147 47.837 15.026 47.2583 15.026C46.521 15.026 45.933 15.1987 45.4943 15.544C45.0557 15.88 44.8363 16.328 44.8363 16.888C44.8363 17.336 44.9717 17.6907 45.2423 17.952C45.5223 18.2133 45.975 18.4047 46.6003 18.526L48.0563 18.834C48.999 19.03 49.6943 19.3287 50.1423 19.73C50.5997 20.122 50.8283 20.6587 50.8283 21.34C50.8283 21.8907 50.679 22.376 50.3803 22.796C50.091 23.216 49.671 23.5427 49.1203 23.776C48.579 24.0093 47.935 24.126 47.1883 24.126ZM55.5216 24.126C54.4483 24.126 53.5989 23.8133 52.9736 23.188C52.3483 22.5533 52.0356 21.6947 52.0356 20.612C52.0356 19.912 52.1756 19.296 52.4556 18.764C52.7356 18.2227 53.1183 17.8073 53.6036 17.518C54.0983 17.2193 54.6676 17.07 55.3116 17.07C56.2356 17.07 56.9589 17.3687 57.4816 17.966C58.0043 18.554 58.2656 19.366 58.2656 20.402V20.836H53.1416C53.1789 21.6107 53.4029 22.2033 53.8136 22.614C54.2243 23.0153 54.7936 23.216 55.5216 23.216C55.9323 23.216 56.3243 23.1553 56.6976 23.034C57.0709 22.9033 57.4256 22.6933 57.7616 22.404L58.1536 23.202C57.8456 23.4913 57.4536 23.72 56.9776 23.888C56.5016 24.0467 56.0163 24.126 55.5216 24.126ZM55.3396 17.91C54.6956 17.91 54.1869 18.1107 53.8136 18.512C53.4403 18.9133 53.2209 19.4407 53.1556 20.094H57.2856C57.2576 19.4033 57.0756 18.8667 56.7396 18.484C56.4129 18.1013 55.9463 17.91 55.3396 17.91ZM62.0488 24.126C61.5821 24.126 61.1621 24.0373 60.7888 23.86C60.4248 23.6733 60.1354 23.4213 59.9208 23.104C59.7061 22.7867 59.5988 22.432 59.5988 22.04C59.5988 21.5453 59.7248 21.1533 59.9768 20.864C60.2381 20.5747 60.6628 20.3693 61.2508 20.248C61.8481 20.1173 62.6601 20.052 63.6868 20.052H64.1348V19.618C64.1348 19.0393 64.0134 18.624 63.7708 18.372C63.5374 18.1107 63.1594 17.98 62.6368 17.98C62.2261 17.98 61.8294 18.0407 61.4468 18.162C61.0641 18.274 60.6721 18.4607 60.2708 18.722L59.8788 17.896C60.2334 17.644 60.6628 17.4433 61.1668 17.294C61.6801 17.1447 62.1701 17.07 62.6368 17.07C63.5141 17.07 64.1628 17.2847 64.5828 17.714C65.0121 18.1433 65.2268 18.8107 65.2268 19.716V24H64.1628V22.824C63.9854 23.2253 63.7101 23.5427 63.3368 23.776C62.9728 24.0093 62.5434 24.126 62.0488 24.126ZM62.2308 23.272C62.7908 23.272 63.2481 23.0807 63.6028 22.698C63.9574 22.306 64.1348 21.8113 64.1348 21.214V20.794H63.7008C62.9448 20.794 62.3474 20.8313 61.9088 20.906C61.4794 20.9713 61.1761 21.0927 60.9988 21.27C60.8308 21.438 60.7468 21.6713 60.7468 21.97C60.7468 22.3527 60.8774 22.6653 61.1388 22.908C61.4094 23.1507 61.7734 23.272 62.2308 23.272ZM67.3306 24V17.196H68.4366V18.414C68.8006 17.5927 69.5473 17.14 70.6766 17.056L71.0826 17.014L71.1666 17.994L70.4526 18.078C69.8086 18.134 69.3186 18.3393 68.9826 18.694C68.6466 19.0393 68.4786 19.5153 68.4786 20.122V24H67.3306ZM75.1501 24.126C74.4688 24.126 73.8808 23.9813 73.3861 23.692C72.8915 23.3933 72.5088 22.978 72.2381 22.446C71.9768 21.9047 71.8461 21.2747 71.8461 20.556C71.8461 19.4733 72.1401 18.624 72.7281 18.008C73.3161 17.3827 74.1235 17.07 75.1501 17.07C75.5701 17.07 75.9855 17.1447 76.3961 17.294C76.8068 17.4433 77.1475 17.6533 77.4181 17.924L77.0261 18.75C76.7555 18.4887 76.4568 18.2973 76.1301 18.176C75.8128 18.0547 75.5095 17.994 75.2201 17.994C74.5108 17.994 73.9648 18.218 73.5821 18.666C73.1995 19.1047 73.0081 19.7393 73.0081 20.57C73.0081 21.382 73.1995 22.026 73.5821 22.502C73.9648 22.9687 74.5108 23.202 75.2201 23.202C75.5095 23.202 75.8128 23.1413 76.1301 23.02C76.4568 22.8987 76.7555 22.7027 77.0261 22.432L77.4181 23.258C77.1475 23.5287 76.8021 23.7433 76.3821 23.902C75.9715 24.0513 75.5608 24.126 75.1501 24.126ZM78.7466 24V14.13H79.8806V18.316C80.1046 17.9053 80.4173 17.5973 80.8186 17.392C81.2293 17.1773 81.6866 17.07 82.1906 17.07C83.8053 17.07 84.6126 17.966 84.6126 19.758V24H83.4786V19.828C83.4786 19.1933 83.3526 18.7313 83.1006 18.442C82.858 18.1433 82.466 17.994 81.9246 17.994C81.2993 17.994 80.8 18.19 80.4266 18.582C80.0626 18.9647 79.8806 19.478 79.8806 20.122V24H78.7466Z" fill="#202224"/>
<g opacity="0.5">
<path fill-rule="evenodd" clip-rule="evenodd" d="M24.1603 22.5351C26.889 21.3749 28.161 18.2215 27.0013 15.4916C25.8416 12.7618 22.6894 11.4893 19.9607 12.6495C17.232 13.8096 15.96 16.9631 17.1197 19.6929C18.2794 22.4227 21.4315 23.6952 24.1603 22.5351Z" stroke="black" stroke-width="1.2" stroke-linecap="round" stroke-linejoin="round"/>
<path d="M25.8563 21.3897L30.0199 25.5557" stroke="black" stroke-width="1.2" stroke-linecap="round" stroke-linejoin="round"/>
</g>
</svg>
