<svg width="325" height="56" viewBox="0 0 325 56" fill="none" xmlns="http://www.w3.org/2000/svg">
  <rect x="0.5" y="0.5" width="324" height="55" rx="15.5" stroke="#D9D9D9"/>
  <path fill-rule="evenodd" clip-rule="evenodd" d="M31.7823 20.9165C27.9965 20.9165 24.9165 23.9957 24.9165 27.7815C24.9165 31.5673 27.9965 34.6473 31.7823 34.6473C35.5673 34.6473 38.6473 31.5673 38.6473 27.7815C38.6473 23.9957 35.5673 20.9165 31.7823 20.9165ZM31.7823 35.8973C27.3073 35.8973 23.6665 32.2565 23.6665 27.7815C23.6665 23.3065 27.3073 19.6665 31.7823 19.6665C36.2573 19.6665 39.8973 23.3065 39.8973 27.7815C39.8973 32.2565 36.2573 35.8973 31.7823 35.8973Z" fill="#484C52"/>
  <path fill-rule="evenodd" clip-rule="evenodd" d="M39.9286 36.9348C39.7694 36.9348 39.6094 36.874 39.4869 36.7523L36.5502 33.824C36.3061 33.5798 36.3052 33.184 36.5494 32.9398C36.7927 32.694 37.1886 32.6957 37.4336 32.9382L40.3702 35.8673C40.6144 36.1115 40.6152 36.5065 40.3711 36.7507C40.2494 36.874 40.0886 36.9348 39.9286 36.9348Z" fill="#484C52"/>
</svg>
